# xmcd
#
# Track frame offsets:
#	150
#	13980
#	35320
#	47595
#	63340
#	79552
#	90765
#	106982
#	125100
#	148540
#	168547
#	182585
#	200372
#	220207
#	233507
#	247747
#	268735
#	280935
#
# Disc length: 3951 seconds
#
# Revision: 1
# Processed by: cddbd v1.4PL0 Copyright (c) Steve Scherf et al.
# Submitted via: EasyCDDAExtractor 5.1.0
#
DISCID=ef0f6d12
DTITLE=Tommy Alverson - Texasongs
DYEAR=1900
DGENRE=Country
TTITLE0=I Can't Afford To Fall In Love
TTITLE1=After Love
TTITLE2=Two More Like You
TTITLE3=What's The Matter With My Baby
TTITLE4=I Can't Help Myself Darlin'
TTITLE5=Movin' On
TTITLE6=Texas Woman
TTITLE7=Back Before The War
TTITLE8=Purty Boys
TTITLE9=Second Hand Love
TTITLE10=My Old Hat
TTITLE11=How Good A Bad Woman Feels
TTITLE12=House Of Broken Hearts
TTITLE13=Two Of A Kind
TTITLE14=Make You Mine
TTITLE15=Pickin' And Grinin'
TTITLE16=This Bottle
TTITLE17=Always In My Heart
EXTD=
EXTT0=
EXTT1=
EXTT2=
EXTT3=
EXTT4=
EXTT5=
EXTT6=
EXTT7=
EXTT8=
EXTT9=
EXTT10=
EXTT11=
EXTT12=
EXTT13=
EXTT14=
EXTT15=
EXTT16=
EXTT17=
PLAYORDER=
